<svg width="322" height="351" viewBox="0 0 322 351" fill="none" xmlns="http://www.w3.org/2000/svg">
<path d="M94.184 42.7457C94.3 42.7799 94.4162 42.8138 94.5323 42.8475C95.499 43.132 96.3846 43.5309 97.2811 43.9904C97.465 44.0772 97.6514 44.1447 97.8426 44.214C100.383 45.2212 102.695 47.1934 104.779 48.9279C104.834 48.974 104.89 49.02 104.947 49.0674C105.559 49.5789 106.144 50.1025 106.702 50.6746C106.877 50.8497 107.056 51.01 107.246 51.169C107.685 51.5462 108.064 51.9797 108.45 52.4101C108.572 52.5446 108.695 52.6773 108.819 52.8094C109.384 53.4111 109.9 54.0397 110.402 54.6947C110.51 54.8354 110.621 54.9746 110.732 55.1136C111.823 56.4941 112.758 57.9869 113.608 59.526C113.648 59.597 113.687 59.6679 113.728 59.741C117.95 67.3262 118.287 76.3428 115.983 84.5751C115.081 87.7035 113.864 90.6773 112.426 93.5928C112.3 93.8484 112.176 94.1047 112.052 94.3614C111.512 95.4757 110.897 96.5423 110.262 97.6046C110.151 97.7912 110.04 97.9782 109.93 98.1653C109.346 99.1532 108.733 100.118 108.093 101.071C107.945 101.291 107.798 101.511 107.652 101.731C106.882 102.884 106.082 104.011 105.259 105.125C105.205 105.199 105.151 105.273 105.095 105.349C104.702 105.881 104.702 105.881 104.602 105.981C104.555 106.689 104.631 107.399 104.698 108.103C104.714 108.269 104.714 108.269 104.729 108.438C104.757 108.739 104.785 109.039 104.813 109.34C104.843 109.656 104.872 109.971 104.902 110.287C104.951 110.816 105 111.345 105.05 111.874C105.108 112.485 105.165 113.097 105.221 113.708C105.276 114.298 105.331 114.887 105.386 115.477C105.41 115.727 105.433 115.977 105.456 116.228C105.489 116.577 105.522 116.926 105.555 117.275C105.564 117.379 105.574 117.482 105.584 117.589C105.593 117.684 105.602 117.779 105.611 117.877C105.619 117.959 105.626 118.042 105.634 118.127C105.659 118.326 105.686 118.508 105.75 118.699C105.935 118.826 105.935 118.826 106.173 118.922C106.264 118.962 106.354 119.002 106.447 119.044C106.546 119.087 106.645 119.129 106.748 119.173C106.959 119.268 107.17 119.363 107.382 119.458C107.436 119.482 107.491 119.507 107.548 119.532C108.133 119.795 108.709 120.079 109.283 120.366C109.386 120.417 109.49 120.469 109.596 120.522C109.806 120.627 110.015 120.732 110.225 120.837C110.488 120.969 110.752 121.101 111.016 121.232C112.262 121.854 113.494 122.495 114.713 123.17C115.034 123.347 115.356 123.521 115.679 123.695C116.702 124.246 117.705 124.828 118.705 125.418C119.01 125.597 119.316 125.775 119.623 125.953C120.989 126.748 122.339 127.566 123.673 128.414C123.764 128.471 123.854 128.528 123.948 128.587C125.258 129.416 126.549 130.268 127.823 131.152C127.899 131.204 127.975 131.257 128.053 131.311C129.622 132.4 131.17 133.513 132.679 134.684C132.733 134.726 132.786 134.767 132.842 134.81C134.027 135.732 135.192 136.678 136.333 137.654C136.479 137.778 136.625 137.902 136.772 138.025C137.52 138.657 138.236 139.319 138.947 139.993C139.179 140.211 139.412 140.427 139.645 140.644C140.412 141.355 141.176 142.07 141.855 142.867C142.059 143.098 142.27 143.322 142.481 143.546C143.037 144.136 143.565 144.736 144.069 145.371C144.15 145.47 144.231 145.57 144.312 145.669C149.62 152.186 152.032 159.97 151.292 168.675C150.652 174.425 148.556 180.002 144.601 184.299C144.44 184.476 144.284 184.655 144.129 184.837C143.49 185.571 142.786 186.259 142.038 186.88C141.992 186.919 141.946 186.957 141.899 186.997C140.399 188.262 138.795 189.35 137.094 190.324C137.018 190.368 136.943 190.411 136.865 190.456C133.01 192.669 128.719 194.077 124.387 195.015C124.149 195.066 123.911 195.12 123.674 195.175C117.943 196.499 111.783 194.847 106.545 192.444C106.428 192.391 106.428 192.391 106.309 192.337C103.277 190.961 100.482 189.143 97.8922 187.056C97.8112 186.992 97.7302 186.927 97.6467 186.86C95.767 185.339 93.8683 183.698 92.3057 181.846C92.1435 181.658 91.9751 181.475 91.8058 181.293C91.31 180.758 90.8442 180.206 90.3875 179.638C90.2985 179.529 90.2094 179.421 90.1202 179.312C89.3403 178.363 88.5763 177.402 87.8887 176.383C87.2259 175.403 86.5126 174.542 85.6831 173.7C85.4869 173.498 85.2988 173.29 85.1121 173.08C84.8174 172.75 84.5188 172.423 84.2181 172.098C83.8751 171.727 83.5328 171.355 83.1917 170.983C82.7225 170.47 82.2513 169.959 81.7797 169.449C81.6489 169.307 81.5182 169.165 81.3876 169.023C80.7638 168.346 80.1366 167.673 79.508 167C79.3024 166.78 79.0969 166.559 78.8915 166.339C78.6864 166.119 78.4812 165.899 78.276 165.679C78.165 165.561 78.0541 165.442 77.9433 165.323C77.1 164.417 77.1 164.417 76.2308 163.537C76.0843 163.387 75.9491 163.232 75.8139 163.073C75.4453 162.643 75.0397 162.25 74.6357 161.853C74.371 161.592 74.1153 161.329 73.8749 161.045C73.4469 160.553 72.9837 160.097 72.5226 159.636C72.4262 159.54 72.3298 159.443 72.2334 159.347C72.0324 159.146 71.8312 158.944 71.6299 158.744C71.3736 158.488 71.1178 158.231 70.862 157.975C70.6633 157.776 70.4644 157.577 70.2655 157.378C70.1711 157.284 70.0768 157.19 69.9826 157.095C69.4715 156.583 68.9555 156.083 68.4029 155.615C68.2949 155.522 68.187 155.429 68.0791 155.336C67.9755 155.247 67.8719 155.158 67.7683 155.069C67.7163 155.024 67.6642 154.979 67.6105 154.933C67.3198 154.684 67.0261 154.44 66.7254 154.202C67.3841 154.19 68.0247 154.223 68.6792 154.297C68.7716 154.307 68.8639 154.317 68.9591 154.327C69.2612 154.36 69.5632 154.394 69.8652 154.429C70.0226 154.446 70.0226 154.446 70.1832 154.464C78.6277 155.419 87.1347 156.861 108.222 164.8C108.242 164.726 108.261 164.652 108.281 164.576C109.115 161.411 110.073 158.211 112.019 155.527C112.053 155.48 112.087 155.433 112.121 155.385C113.202 153.902 114.497 152.661 116.08 151.729C113.622 152.251 111.465 153.36 109.635 155.086C109.569 155.145 109.502 155.205 109.434 155.266C107.838 156.759 107.052 158.906 106.633 161.003C106.28 160.877 105.999 160.706 105.689 160.495C99.8908 156.681 92.6722 154.665 61.3315 150.087C52.9809 149.656 44.6434 148.97 25.0634 145.068C24.8794 145.01 24.8794 145.01 24.6987 145.017C31.7566 148.06 39.149 150.18 58.0246 153.23C58.1399 153.242 58.1399 153.242 58.2575 153.253C58.6611 153.293 59.0644 153.328 59.469 153.355C59.5531 153.362 59.6372 153.368 59.7238 153.375C59.8835 153.387 60.0434 153.397 60.2033 153.406C60.7111 153.446 60.9605 153.548 61.3231 153.91C61.3801 153.983 61.4371 154.056 61.4958 154.132C61.659 154.337 61.8029 154.481 62.0001 154.648C62.3234 154.924 62.6266 155.217 62.9261 155.519C62.9728 155.566 63.0195 155.613 63.0677 155.661C63.2617 155.857 63.4552 156.053 63.6489 156.249C64.285 156.899 64.285 156.899 64.9568 157.512C65.5434 158.012 66.0717 158.578 66.613 159.126C67.1058 159.624 67.5949 160.117 68.1287 160.572C68.6296 161.02 69.0923 161.512 69.5644 161.99C70.2012 162.641 70.2012 162.641 70.8737 163.254C71.3973 163.7 71.8708 164.201 72.354 164.69C72.5501 164.889 72.7465 165.087 72.943 165.285C72.9873 165.33 73.0315 165.375 73.0771 165.421C73.2579 165.603 73.4329 165.77 73.6429 165.918C73.691 165.957 73.7391 165.997 73.7887 166.037C73.7887 166.124 73.7887 166.212 73.7887 166.302C66.7181 169.711 58.9856 172.002 39.5317 175.134C39.4747 175.137 39.4177 175.141 39.3589 175.145C37.9382 175.235 36.5182 175.24 35.095 175.238C35.0344 175.238 34.9738 175.238 34.9114 175.238C33.0909 175.238 31.2799 175.224 29.4664 175.045C29.3458 175.034 29.2252 175.022 29.1046 175.011C27.1209 174.819 25.1579 174.52 23.1978 174.162C23.1238 174.149 23.0498 174.135 22.9736 174.121C15.8816 172.823 8.10141 170.507 3.42051 164.624C3.31671 164.499 3.31671 164.499 3.21082 164.371C1.75737 162.573 0.805467 160.433 0.330311 158.177C0.30863 158.074 0.30863 158.074 0.28651 157.97C-0.140916 155.837 -0.0599623 153.507 0.330311 151.376C0.353038 151.25 0.353038 151.25 0.376224 151.12C0.992376 147.786 2.6651 144.863 4.83317 142.279C4.87498 142.229 4.91679 142.179 4.95987 142.127C5.86361 141.046 6.81879 140.021 7.813 139.023C7.88295 138.952 7.95289 138.882 8.02496 138.81C8.44781 138.388 8.88262 137.987 9.33603 137.599C9.44122 137.506 9.5463 137.414 9.65125 137.321C10.3809 136.681 11.1249 136.068 11.8965 135.479C11.9636 135.428 12.0306 135.377 12.0997 135.324C13.0201 134.622 13.9496 133.939 14.9102 133.294C15.0711 133.185 15.2314 133.076 15.3916 132.967C17.7238 131.385 20.1783 129.994 22.668 128.679C22.7649 128.627 22.8618 128.576 22.9616 128.523C24.6669 127.618 26.4006 126.786 28.1683 126.01C29.5185 125.417 30.8246 124.773 32.1141 124.057C32.4465 123.873 32.7802 123.691 33.114 123.509C33.2718 123.423 33.4296 123.337 33.5873 123.251C34.2136 122.908 34.8417 122.569 35.4703 122.231C36.261 121.806 37.0502 121.378 37.838 120.948C38.6946 120.48 39.5532 120.015 40.4117 119.55C40.8542 119.311 41.2966 119.071 41.7389 118.831C42.2707 118.543 42.8025 118.255 43.3344 117.967C43.4228 117.919 43.5113 117.871 43.6024 117.822C43.7787 117.726 43.9551 117.631 44.1315 117.536C44.5799 117.295 45.0251 117.049 45.4668 116.795C45.5553 116.745 45.6438 116.695 45.7349 116.643C45.9035 116.547 46.0713 116.45 46.2382 116.352C46.3135 116.31 46.3888 116.267 46.4663 116.223C46.5647 116.166 46.5647 116.166 46.665 116.108C46.9811 116.012 47.1818 116.164 47.4609 116.309C47.5105 116.338 47.5602 116.366 47.6114 116.396C47.6697 116.429 47.7281 116.463 47.7882 116.497C47.8515 116.533 47.9148 116.569 47.98 116.607C52.2536 119.005 56.905 120.736 61.7811 121.348C61.8539 121.358 61.9267 121.367 62.0017 121.377C62.6052 121.446 63.2048 121.445 63.8118 121.437C63.7564 121.407 63.701 121.378 63.6439 121.348C62.4005 120.69 61.1913 120.001 60.0152 119.229C59.9177 119.165 59.8202 119.102 59.7197 119.036C58.5997 118.3 57.5289 117.506 56.4836 116.667C56.399 116.6 56.3145 116.533 56.2273 116.464C55.6588 116.006 55.1195 115.521 54.5856 115.023C54.4574 114.905 54.3272 114.789 54.197 114.673C53.0931 113.686 52.0951 112.605 51.2048 111.421C51.1043 111.289 51.0016 111.158 50.8988 111.027C47.9277 107.193 46.3012 102.392 46.8556 97.5296C47.5009 92.5467 49.9963 88.042 53.2168 84.2549C53.2571 84.2073 53.2973 84.1597 53.3388 84.1106C53.794 83.5721 54.2521 83.0423 54.7398 82.5327C55.2184 82.0088 55.5477 81.4388 55.8656 80.8105C55.9127 80.7184 55.9598 80.6263 56.0083 80.5314C56.4668 79.5537 56.7095 78.5084 56.925 77.4545C56.952 77.3241 56.952 77.3241 56.9795 77.1911C57.2373 75.8539 57.1608 74.6171 57.0036 73.2786C56.1743 66.1516 57.5098 58.3075 62.0033 52.5541C62.2725 52.2193 62.5536 51.897 62.8406 51.5775C62.8821 51.531 62.9237 51.4846 62.9665 51.4368C63.2446 51.1269 63.5267 50.8212 63.8118 50.5176C63.8659 50.4597 63.9201 50.4017 63.9759 50.342C64.4151 49.8871 64.9057 49.4961 65.401 49.1046C65.4555 49.061 65.5099 49.0175 65.566 48.9726C69.036 46.2054 73.7208 43.9941 78.135 43.3736C78.7625 43.2799 79.3598 43.1128 79.9691 42.9389C81.7871 42.4336 83.6498 42.1027 85.5314 41.9508C85.5923 41.9459 85.6531 41.9409 85.7157 41.9358C88.5458 41.7145 91.4678 41.8795 94.184 42.7457Z" fill="#00ADEE"/>
<path d="M72.6409 170.894C72.9846 171.032 73.1761 171.249 73.419 171.524C73.4578 171.567 73.4967 171.611 73.5367 171.656C73.6507 171.784 73.7639 171.913 73.877 172.043C73.9321 172.105 73.9871 172.168 74.0439 172.233C74.1426 172.345 74.2411 172.458 74.3395 172.571C74.9678 173.289 75.6143 173.991 76.2608 174.692C76.3083 174.744 76.3558 174.795 76.4047 174.848C77.0269 175.524 77.6597 176.185 78.3125 176.831C78.6194 177.136 78.9092 177.448 79.1893 177.778C79.4096 178.026 79.6414 178.26 79.8753 178.495C79.9386 178.559 79.9386 178.559 80.0033 178.624C80.2435 178.864 80.4904 179.091 80.7475 179.312C81.2282 179.729 81.6679 180.185 82.1136 180.638C82.4772 181.006 82.8469 181.358 83.239 181.695C83.6013 182.01 83.9465 182.345 84.2953 182.675C84.8843 183.231 85.4953 183.76 86.1108 184.286C86.5011 184.619 86.89 184.955 87.2772 185.292C87.7808 185.73 88.2873 186.164 88.8065 186.584C88.9968 186.738 89.1861 186.893 89.3749 187.049C90.1676 187.702 90.9798 188.324 91.8039 188.937C92.1479 189.193 92.4884 189.454 92.8275 189.716C93.5848 190.302 94.3604 190.851 95.1552 191.384C95.2424 191.443 95.3297 191.502 95.4196 191.563C97.9564 193.275 100.545 194.86 103.278 196.242C103.414 196.311 103.414 196.311 103.553 196.381C107.231 198.237 111.178 199.648 115.286 200.127C115.356 200.136 115.425 200.144 115.497 200.153C119.14 200.537 122.848 200.027 126.152 198.418C126.322 198.361 126.322 198.361 126.587 198.449C126.504 198.526 126.421 198.602 126.336 198.681C125.208 199.731 124.118 200.818 123.029 201.909C122.767 202.17 122.506 202.431 122.245 202.693C121.807 203.13 121.37 203.568 120.933 204.006C120.429 204.51 119.925 205.014 119.421 205.518C118.985 205.954 118.549 206.39 118.113 206.826C117.854 207.085 117.595 207.344 117.336 207.603C117.093 207.846 116.85 208.089 116.608 208.332C116.519 208.421 116.43 208.509 116.342 208.598C115.901 209.038 115.469 209.48 115.064 209.955C113.426 211.85 111.468 212.824 109.039 213.348C108.957 213.365 108.875 213.383 108.791 213.402C107.206 213.726 105.619 213.761 104.006 213.756C103.903 213.756 103.8 213.756 103.693 213.755C102.066 213.751 100.477 213.689 98.8634 213.463C98.7339 213.446 98.6043 213.429 98.4747 213.412C95.2265 212.977 92.0291 212.272 88.8865 211.344C88.825 211.326 88.7635 211.308 88.7001 211.289C85.203 210.253 81.8037 208.955 78.5158 207.375C73.7471 205.084 68.4927 204.426 63.4186 206.163C59.9327 207.411 56.6616 209.579 54.5412 212.669C54.5083 212.716 54.4754 212.764 54.4415 212.813C52.82 215.179 51.717 217.967 51.8924 220.882C51.8956 220.938 51.8987 220.994 51.902 221.052C52.1803 225.478 54.5938 229.457 57.4548 232.717C57.5386 232.814 57.5386 232.814 57.6241 232.913C57.7726 233.084 57.9226 233.254 58.0728 233.423C58.1259 233.484 58.179 233.544 58.2337 233.607C58.7701 234.212 59.3342 234.787 59.9071 235.358C60.0653 235.516 60.223 235.674 60.3806 235.832C60.8915 236.343 61.406 236.841 61.9576 237.309C62.0996 237.438 62.2413 237.566 62.3825 237.696C64.5664 239.663 67.5412 241.646 70.6047 241.57C72.7729 241.396 74.6922 240.499 76.1194 238.827C77.6609 236.846 78.287 234.685 78.115 232.187C78.0514 231.698 77.9217 231.24 77.7618 230.774C77.7308 230.681 77.6999 230.588 77.668 230.492C77.399 229.774 76.9822 229.174 76.5257 228.566C76.4636 228.479 76.4636 228.479 76.4002 228.39C75.6736 227.45 74.5565 226.821 73.5244 226.275C73.348 226.182 73.1727 226.086 72.9975 225.99C72.3609 225.644 71.7173 225.321 71.0516 225.033C71.9582 222.527 74.6791 220.464 76.9672 219.292C77.0216 219.264 77.0761 219.236 77.1322 219.207C79.7917 217.854 82.8381 217.394 85.7908 217.808C85.8562 217.816 85.9216 217.825 85.989 217.835C87.463 218.069 88.8941 218.57 90.3082 219.031C90.7968 219.19 91.2858 219.348 91.7748 219.506C91.888 219.543 92.0013 219.58 92.1145 219.616C93.3468 220.015 94.5819 220.405 95.8174 220.794C97.7181 221.392 99.6165 221.998 101.513 222.611C102.46 222.917 103.408 223.22 104.359 223.515C104.526 223.567 104.694 223.619 104.862 223.671C105.167 223.766 105.472 223.86 105.777 223.953C107.168 224.381 108.375 224.955 109.14 226.259C109.541 227.038 109.695 227.906 109.815 228.766C109.83 228.868 109.845 228.97 109.861 229.076C109.91 229.413 109.957 229.751 110.005 230.089C110.022 230.209 110.039 230.329 110.056 230.449C110.661 234.704 111.174 238.968 111.603 243.244C111.627 243.479 111.651 243.713 111.674 243.947C111.711 244.315 111.748 244.683 111.784 245.051C111.797 245.186 111.81 245.321 111.824 245.456C111.897 246.186 111.951 246.908 111.931 247.642C111.901 247.642 111.872 247.642 111.842 247.642C111.813 247.38 111.784 247.118 111.754 246.847C111.485 247.116 111.217 247.385 110.951 247.655C110.764 247.845 110.577 248.033 110.389 248.222C110.292 248.32 110.195 248.419 110.097 248.518C109.473 249.152 108.835 249.74 108.134 250.292C108.026 250.38 107.919 250.469 107.812 250.558C106.388 251.723 104.871 252.731 103.278 253.648C103.214 253.685 103.149 253.722 103.083 253.761C101.56 254.64 99.9869 255.482 98.3409 256.105C98.0894 256.201 97.8485 256.309 97.6053 256.424C96.8947 256.752 96.1566 257.007 95.4201 257.269C95.3226 257.304 95.2252 257.339 95.1249 257.374C93.8154 257.841 92.5068 258.272 91.1602 258.618C90.9085 258.684 90.6583 258.755 90.4081 258.827C87.7404 259.584 85.0101 260.075 82.2646 260.448C82.133 260.467 82.133 260.467 81.9986 260.486C81.7784 260.518 81.5582 260.547 81.3376 260.575C81.2256 260.59 81.1136 260.604 80.9982 260.619C80.7275 260.624 80.5639 260.605 80.3097 260.539C79.8869 260.441 79.4853 260.421 79.0527 260.418C78.9366 260.416 78.9366 260.416 78.8181 260.414C78.6528 260.412 78.4876 260.409 78.3223 260.407C77.8842 260.402 77.4462 260.393 77.0082 260.384C76.9209 260.382 76.8336 260.38 76.7436 260.378C69.4949 260.219 62.1676 258.742 44.9174 250.468C44.8586 250.428 44.7997 250.387 44.7391 250.345C43.4672 249.463 42.2185 248.55 41.0326 247.554C40.9402 247.477 40.8477 247.4 40.7553 247.323C40.1849 246.846 39.63 246.356 39.0857 245.85C38.8987 245.676 38.7069 245.51 38.5128 245.344C38.0264 244.92 37.5742 244.461 37.1189 244.004C36.966 243.85 36.8126 243.698 36.6592 243.545C36.1557 243.041 35.6664 242.533 35.2054 241.99C35.077 241.848 34.9482 241.706 34.8191 241.565C34.4015 241.101 34.0059 240.622 33.6161 240.135C33.58 240.09 33.5438 240.045 33.5066 239.999C32.4403 238.668 31.4454 237.292 30.4983 235.874C30.4616 235.819 30.4249 235.764 30.387 235.708C29.8483 234.902 29.3401 234.082 28.8484 233.247C28.8021 233.168 28.7559 233.09 28.7082 233.01C24.7486 226.285 22.2137 218.827 18.5183 186.88C18.5191 186.81 18.5198 186.741 18.5206 186.669C18.5543 183.762 18.7089 180.862 18.8715 177.96C19.2249 177.856 19.505 177.906 19.8596 177.979C19.9916 178.005 20.1235 178.031 20.2555 178.057C20.3256 178.071 20.3956 178.084 20.4678 178.099C24.1762 178.83 27.9384 179.257 31.7068 179.522C31.8211 179.53 31.8211 179.53 31.9376 179.538C34.1173 179.69 36.2931 179.745 38.4777 179.743C38.5415 179.743 38.6054 179.743 38.6712 179.743C40.7576 179.742 42.8366 179.714 44.9174 179.55C44.9891 179.544 45.0609 179.538 45.1347 179.533C52.2279 178.976 59.3909 177.624 66.9902 174.162C67.0824 174.119 67.1745 174.075 67.2694 174.031C69.1332 173.147 70.9817 172.126 72.6409 170.894Z" fill="#00ADEE"/>
<path d="M222.118 204.102C222.171 204.129 222.223 204.157 222.277 204.185C223.446 204.801 224.498 205.591 225.464 206.491C225.63 206.645 225.8 206.79 225.975 206.933C226.316 207.225 226.598 207.557 226.886 207.899C226.953 207.977 227.021 208.054 227.09 208.134C227.982 209.173 228.71 210.314 229.358 211.52C229.387 211.574 229.416 211.628 229.445 211.683C230.797 214.229 231.588 217.01 232.023 219.85C232.037 219.938 232.051 220.025 232.065 220.116C232.365 222.197 232.385 224.278 232.38 226.375C232.38 226.788 232.38 227.2 232.38 227.612C232.38 228.324 232.38 229.036 232.379 229.748C232.377 230.777 232.377 231.807 232.376 232.836C232.376 234.506 232.375 236.177 232.373 237.847C232.372 239.469 232.37 241.09 232.37 242.711C232.369 242.812 232.369 242.914 232.369 243.018C232.369 243.81 232.369 244.601 232.368 245.393C232.367 249.263 232.363 253.134 232.36 257.004C225.251 257.004 218.141 257.004 210.817 257.004C210.814 254.825 210.812 252.646 210.81 250.401C210.808 249.02 210.805 247.64 210.803 246.259C210.801 245.534 210.8 244.808 210.798 244.083C210.798 243.992 210.798 243.901 210.798 243.808C210.795 242.343 210.794 240.878 210.793 239.413C210.792 237.908 210.789 236.403 210.785 234.898C210.783 233.97 210.782 233.043 210.782 232.115C210.782 231.478 210.781 230.841 210.779 230.203C210.777 229.836 210.777 229.469 210.777 229.103C210.783 226.241 210.512 223.644 208.425 221.486C206.918 220.072 204.855 219.576 202.837 219.624C201.232 219.692 199.736 220.165 198.456 221.147C198.385 221.2 198.315 221.254 198.242 221.309C196.647 222.615 195.953 224.747 195.738 226.732C195.699 227.224 195.705 227.718 195.705 228.212C195.705 228.336 195.704 228.461 195.704 228.585C195.702 228.926 195.702 229.266 195.701 229.607C195.701 229.975 195.699 230.343 195.698 230.711C195.696 231.347 195.695 231.984 195.693 232.621C195.691 233.542 195.689 234.463 195.686 235.383C195.682 236.877 195.678 238.371 195.675 239.865C195.671 241.316 195.667 242.767 195.664 244.218C195.663 244.309 195.663 244.399 195.663 244.492C195.661 245.199 195.659 245.906 195.657 246.613C195.648 250.077 195.639 253.54 195.631 257.004C188.492 257.004 181.354 257.004 173.999 257.004C173.999 238.934 173.999 220.864 173.999 202.247C181.138 202.247 188.276 202.247 195.631 202.247C195.66 204.899 195.689 207.551 195.719 210.284C195.981 209.905 196.243 209.526 196.514 209.136C196.693 208.911 196.869 208.693 197.06 208.479C197.108 208.424 197.156 208.37 197.205 208.314C198.102 207.306 199.047 206.403 200.133 205.603C200.246 205.519 200.246 205.519 200.361 205.434C206.493 201.003 215.475 200.563 222.118 204.102Z" fill="#00ADEF"/>
<path d="M147.159 201.717C147.304 201.734 147.304 201.734 147.452 201.75C150.722 202.134 154.003 202.981 156.959 204.455C157.031 204.49 157.103 204.525 157.178 204.561C159.045 205.469 160.782 206.621 162.345 207.988C162.416 208.05 162.416 208.05 162.488 208.113C162.8 208.388 163.104 208.671 163.404 208.959C163.452 209.005 163.499 209.05 163.548 209.097C164.196 209.723 164.793 210.367 165.347 211.079C165.416 211.166 165.486 211.252 165.558 211.342C168.84 215.47 170.496 220.629 170.997 225.828C171.006 225.911 171.014 225.993 171.023 226.078C171.103 226.948 171.102 227.819 171.102 228.692C171.102 228.954 171.104 229.217 171.106 229.48C171.109 230.796 171.08 232.129 170.821 233.423C159.429 233.423 148.036 233.423 136.299 233.423C136.804 236.791 136.804 236.791 138.794 239.417C140.029 240.304 141.65 240.48 143.124 240.285C144.428 240.055 145.555 239.471 146.33 238.379C146.652 237.926 146.652 237.926 146.893 237.428C147.07 237.221 147.07 237.221 147.245 237.181C147.488 237.165 147.727 237.164 147.97 237.168C148.064 237.167 148.158 237.167 148.254 237.167C148.569 237.166 148.884 237.168 149.2 237.171C149.425 237.171 149.65 237.171 149.876 237.171C150.362 237.17 150.848 237.172 151.333 237.174C152.036 237.178 152.739 237.179 153.441 237.179C154.581 237.18 155.721 237.183 156.86 237.188C157.968 237.192 159.075 237.195 160.182 237.197C160.251 237.197 160.319 237.197 160.389 237.197C160.732 237.198 161.074 237.198 161.416 237.199C164.257 237.203 167.097 237.211 169.938 237.221C169.911 237.387 169.884 237.554 169.857 237.72C169.842 237.813 169.827 237.906 169.812 238.001C169.175 241.531 167.322 244.969 165.082 247.731C165.021 247.807 165.021 247.807 164.958 247.885C164.379 248.606 163.741 249.266 163.09 249.922C163.014 249.999 162.938 250.076 162.859 250.155C162.332 250.68 161.78 251.156 161.197 251.617C161.143 251.66 161.09 251.703 161.034 251.747C155.949 255.811 149.545 257.67 143.097 257.65C142.99 257.65 142.883 257.649 142.772 257.649C141.214 257.645 139.693 257.608 138.153 257.357C138.054 257.342 137.954 257.327 137.852 257.311C136.333 257.078 134.857 256.735 133.385 256.297C133.306 256.274 133.226 256.251 133.144 256.226C129.244 255.062 125.814 252.904 122.879 250.115C122.769 250.011 122.769 250.011 122.657 249.905C122.234 249.493 121.855 249.056 121.486 248.594C121.362 248.44 121.236 248.287 121.106 248.136C116.812 243.118 115.18 236.195 115.175 229.73C115.175 229.65 115.175 229.569 115.175 229.486C115.184 222.211 117.301 214.901 122.437 209.577C122.523 209.488 122.523 209.488 122.61 209.397C123.371 208.608 124.139 207.867 125.022 207.217C125.177 207.102 125.33 206.985 125.483 206.867C126.365 206.194 127.303 205.626 128.264 205.073C128.321 205.04 128.377 205.008 128.435 204.974C133.933 201.786 140.923 201.007 147.159 201.717ZM138.081 220.413C137.266 221.384 136.564 222.679 136.564 223.973C140.73 223.973 144.897 223.973 149.189 223.973C149.189 222.453 148.781 221.225 147.725 220.112C146.369 218.826 144.561 218.455 142.75 218.479C140.977 218.533 139.326 219.115 138.081 220.413Z" fill="#00ADEF"/>
<path d="M294.02 201.524C294.13 201.524 294.13 201.524 294.242 201.524C297.764 201.531 301.232 202.027 304.582 203.13C304.656 203.154 304.729 203.178 304.805 203.202C308.578 204.44 311.909 206.574 314.719 209.362C314.796 209.438 314.873 209.514 314.952 209.593C315.476 210.12 315.954 210.671 316.413 211.255C316.458 211.312 316.502 211.368 316.548 211.426C317.286 212.379 317.919 213.399 318.532 214.435C318.567 214.493 318.601 214.55 318.636 214.61C320.249 217.372 321.13 220.556 321.645 223.692C321.658 223.773 321.671 223.853 321.685 223.937C321.929 225.524 322.004 227.099 321.999 228.703C321.998 229.013 321.999 229.322 322 229.632C322.002 232.551 322.002 232.551 321.711 233.423C310.348 233.452 298.985 233.481 287.277 233.511C287.395 234.749 287.395 234.749 287.641 235.951C287.66 236.02 287.678 236.088 287.698 236.159C288.12 237.625 288.864 238.892 290.191 239.694C291.655 240.439 293.336 240.543 294.907 240.069C296.344 239.567 297.291 238.56 297.96 237.221C305.507 237.221 313.053 237.221 320.828 237.221C320.35 241.524 317.893 245.778 314.967 248.896C314.751 249.127 314.542 249.364 314.333 249.602C313.936 250.043 313.507 250.434 313.058 250.822C312.974 250.896 312.89 250.97 312.803 251.047C308.977 254.391 304.146 256.438 299.169 257.291C299.091 257.304 299.013 257.318 298.933 257.331C297.303 257.593 295.686 257.655 294.037 257.65C293.932 257.65 293.827 257.649 293.718 257.649C292.143 257.645 290.602 257.602 289.043 257.357C288.942 257.342 288.841 257.327 288.737 257.311C285.872 256.873 283.087 256.067 280.479 254.796C280.398 254.757 280.318 254.718 280.235 254.677C278.143 253.65 276.233 252.371 274.533 250.775C274.343 250.598 274.15 250.43 273.951 250.264C272.983 249.419 272.186 248.408 271.427 247.378C271.309 247.218 271.189 247.06 271.068 246.902C266.373 240.667 265.421 231.964 266.418 224.448C267.105 219.597 268.897 214.901 272.003 211.079C272.045 211.026 272.087 210.974 272.13 210.92C273.159 209.65 274.322 208.449 275.623 207.458C275.711 207.388 275.799 207.318 275.89 207.246C281.016 203.191 287.568 201.515 294.02 201.524ZM289.043 220.352C288.225 221.306 287.454 222.688 287.454 223.973C291.62 223.973 295.787 223.973 300.079 223.973C300.079 222.457 299.751 221.28 298.705 220.153C297.316 218.842 295.485 218.436 293.624 218.475C291.929 218.543 290.239 219.102 289.043 220.352Z" fill="#00ADEF"/>
<path d="M95.8285 0.0662921C95.9257 0.0704439 96.023 0.0745958 96.1232 0.0788734C99.1261 0.208848 102.017 0.588466 104.867 1.58977C104.986 1.6297 105.105 1.66961 105.223 1.70948C107.553 2.51576 109.743 3.76456 111.666 5.2991C111.757 5.37083 111.849 5.44255 111.943 5.51645C113.319 6.63492 114.602 7.92223 115.639 9.36171C115.711 9.45783 115.783 9.55385 115.855 9.64977C116.735 10.8312 117.482 12.1086 118.119 13.4357C118.539 14.2982 119.033 15.1016 119.568 15.8972C119.62 15.9749 119.62 15.9749 119.673 16.0542C120.832 17.7825 122.064 19.4587 123.48 20.9865C123.65 21.1709 123.814 21.3586 123.977 21.5495C124.663 22.3355 125.414 23.0257 126.234 23.6691C126.322 23.741 126.41 23.8128 126.5 23.8868C127.936 25.046 129.844 26.1705 131.753 26.0841C133.443 25.8508 134.693 25.0964 135.769 23.763C138.488 20.1705 139.42 15.1334 139.94 10.7624C139.965 10.555 139.99 10.3476 140.015 10.1403C140.081 9.60083 140.146 9.06129 140.21 8.52173C140.277 7.96863 140.344 7.41562 140.411 6.8626C140.542 5.78218 140.672 4.70166 140.802 3.62107C141.041 3.84748 141.148 4.03956 141.271 4.34727C141.309 4.44248 141.347 4.53768 141.386 4.63577C141.426 4.73991 141.467 4.84406 141.508 4.95135C141.54 5.03233 141.54 5.03233 141.572 5.11495C143.271 9.49871 144.597 14.3353 144.616 19.0611C144.617 19.1586 144.617 19.2561 144.618 19.3565C144.619 19.5622 144.619 19.7679 144.62 19.9735C144.62 20.2807 144.623 20.5878 144.626 20.8949C144.65 25.8617 143.17 30.6039 139.742 34.2672C139.665 34.35 139.588 34.4328 139.509 34.518C137.312 36.8281 133.38 39.3072 130.11 39.4053C129.976 39.4076 129.843 39.4094 129.71 39.4107C129.637 39.4116 129.564 39.4124 129.49 39.4133C127.727 39.43 126.028 39.3749 124.291 39.0364C124.155 39.0101 124.155 39.0101 124.016 38.9833C121.652 38.5085 119.315 37.6849 117.14 36.6518C117.06 36.6141 116.98 36.5763 116.897 36.5374C115.064 35.6662 113.334 34.6272 111.666 33.4724C111.582 33.4149 111.582 33.4149 111.498 33.3562C110.706 32.8064 109.945 32.2212 109.194 31.6177C109.112 31.5525 109.031 31.4872 108.947 31.42C107.043 29.8792 105.302 28.1803 103.579 26.444C103.509 26.3735 103.438 26.303 103.366 26.2303C103.303 26.1646 103.239 26.099 103.173 26.0313C102.734 25.6081 102.058 25.5893 101.479 25.568C99.6204 25.6164 97.6674 27.2575 96.4237 28.5525C95.1357 30.0259 94.2663 31.7575 94.184 33.7373C94.1056 33.7169 94.0272 33.6966 93.9464 33.6756C93.2188 33.4898 92.489 33.3157 91.756 33.1522C91.6766 33.134 91.5972 33.1159 91.5154 33.0971C90.291 32.8281 89.0874 32.7346 87.8376 32.738C87.6181 32.7382 87.3988 32.7362 87.1794 32.7339C84.5016 32.7232 81.899 33.4553 79.7926 35.1504C79.3462 34.7967 78.995 34.4241 78.6613 33.9636C78.6157 33.9015 78.5701 33.8394 78.5232 33.7755C78.3858 33.587 78.2501 33.3975 78.115 33.2074C78.0773 33.1545 78.0396 33.1015 78.0008 33.047C74.7021 28.3629 72.4549 22.4253 73.3933 16.6307C73.4331 16.4147 73.4772 16.2002 73.5239 15.9855C73.5502 15.8642 73.5502 15.8642 73.577 15.7404C74.535 11.4774 77.1341 7.62351 80.4989 4.85752C80.5467 4.81728 80.5945 4.77705 80.6438 4.7356C83.5934 2.25525 87.1011 0.742399 90.9228 0.198768C90.9935 0.188551 91.0641 0.178333 91.1369 0.167805C92.6983 -0.0341524 94.2596 -0.00332029 95.8285 0.0662921Z" fill="#00ADEE"/>
<path d="M239.335 202.247C246.444 202.247 253.553 202.247 260.878 202.247C260.878 220.317 260.878 238.387 260.878 257.004C253.769 257.004 246.66 257.004 239.335 257.004C239.335 238.934 239.335 220.864 239.335 202.247Z" fill="#00ADEF"/>
<path d="M95.5967 288.886C95.8333 288.947 95.8333 288.947 96.1154 289.063C96.2194 289.106 96.3235 289.148 96.4307 289.192C96.707 289.312 96.9798 289.437 97.2522 289.565C97.9174 289.879 98.6007 290.145 99.2841 290.416C99.8787 290.652 100.468 290.895 101.055 291.151C101.369 291.285 101.686 291.411 102.003 291.536C102.415 291.698 102.818 291.871 103.217 292.06C103.928 292.396 104.663 292.67 105.397 292.949C105.183 293.195 104.966 293.305 104.669 293.434C104.574 293.476 104.48 293.517 104.383 293.56C104.28 293.604 104.178 293.649 104.073 293.694C103.91 293.766 103.748 293.837 103.585 293.908C103.417 293.982 103.249 294.055 103.08 294.129C100.689 295.172 98.3239 296.266 95.9757 297.401C95.7183 297.526 95.4607 297.649 95.2029 297.772C94.0167 298.34 92.8358 298.913 91.6782 299.537C91.4093 299.681 91.1395 299.824 90.8697 299.967C89.5973 300.641 88.3434 301.34 87.1051 302.075C86.8642 302.217 86.622 302.357 86.3792 302.496C84.0646 303.827 81.8481 305.36 79.8469 307.13C79.7534 307.213 79.6596 307.295 79.5654 307.377C78.4209 308.371 77.499 309.501 76.7024 310.789C76.67 310.841 76.6377 310.893 76.6044 310.947C75.0895 313.406 74.3826 316.481 75.0159 319.335C75.3352 320.616 75.7927 321.826 76.4375 322.977C76.4696 323.035 76.5017 323.092 76.5348 323.152C76.9117 323.82 77.3104 324.437 77.8119 325.021C77.9384 325.185 77.9384 325.185 77.9384 325.362C78.0008 325.361 78.0632 325.36 78.1274 325.358C78.2633 325.357 78.2633 325.357 78.402 325.356C78.5054 325.355 78.6089 325.354 78.7155 325.353C78.9915 325.355 79.2623 325.376 79.537 325.403C79.6148 325.41 79.6925 325.416 79.7726 325.423C79.9272 325.437 80.0816 325.454 80.2357 325.473C80.4571 325.491 80.635 325.499 80.8521 325.45C81.0224 325.304 81.139 325.159 81.2627 324.973C81.3818 324.832 81.3818 324.832 81.7184 324.771C85.3007 325.082 88.9065 327.29 91.9731 328.99C94.4538 330.35 97.3055 330.799 100.044 330.031C101.358 329.631 102.229 329.148 103.095 328.072C104.138 326.786 105.701 325.973 107.268 325.525C107.565 325.435 107.857 325.332 108.151 325.229C108.931 324.962 109.776 324.714 110.606 324.743C110.656 323.89 110.656 323.89 110.367 323.124C110.244 323.026 110.118 322.933 109.989 322.842C109.687 322.62 109.554 322.364 109.458 322.006C109.356 321.246 109.434 320.597 109.9 319.974C110.381 319.49 110.878 319.302 111.555 319.235C112.094 319.252 112.649 319.418 113.072 319.757C113.579 320.309 113.756 320.928 113.733 321.669C113.635 322.336 113.297 322.828 112.774 323.237C112.637 323.33 112.637 323.33 112.46 323.419C112.433 323.644 112.415 323.861 112.405 324.087C112.402 324.149 112.398 324.212 112.395 324.277C112.386 324.432 112.379 324.588 112.372 324.743C112.435 324.745 112.499 324.746 112.564 324.747C114.838 324.852 116.923 325.851 118.641 327.305C118.697 327.35 118.753 327.395 118.811 327.442C119.472 327.984 119.963 328.643 120.446 329.343C120.759 329.792 121.087 330.118 121.521 330.445C122.038 330.854 122.669 331.389 122.967 331.985C122.978 331.926 122.988 331.867 122.999 331.807C123.414 329.534 123.938 327.641 125.616 325.98C125.673 325.921 125.73 325.862 125.788 325.801C127.113 324.525 129.067 324.134 130.842 324.103C132.497 324.135 133.918 324.688 135.135 325.825C136.195 326.948 136.608 328.406 136.587 329.924C136.515 330.839 136.087 331.469 135.416 332.074C134.403 332.884 133.242 333.134 131.991 333.303C130.246 333.545 128.84 334.431 127.558 335.606C127.622 335.644 127.686 335.681 127.752 335.72C128.432 336.133 129.025 336.539 129.282 337.329C129.435 338.135 129.434 338.972 128.971 339.669C128.538 340.281 128.036 340.669 127.293 340.817C126.494 340.89 125.748 340.81 125.08 340.334C124.546 339.845 124.213 339.21 124.115 338.493C124.044 336.926 124.932 335.505 125.942 334.38C127.307 332.899 128.926 331.816 130.753 330.978C130.829 330.943 130.904 330.908 130.982 330.872C131.127 330.807 131.272 330.743 131.418 330.68C131.933 330.449 132.246 330.201 132.505 329.684C132.627 329.212 132.57 328.877 132.326 328.453C131.96 328.008 131.597 327.778 131.024 327.702C129.772 327.773 128.782 329.032 128.002 329.898C127.37 330.62 126.796 331.384 126.243 332.168C126.108 332.356 125.972 332.541 125.832 332.725C124.74 334.164 124.081 335.181 124.198 337.052C124.21 337.598 124.033 338.1 123.85 338.609C123.819 338.7 123.788 338.791 123.756 338.884C123.139 340.532 121.855 341.851 120.318 342.672C120.117 342.751 119.915 342.827 119.711 342.898C119.24 343.065 118.985 343.256 118.656 343.626C118.335 343.951 117.955 344.187 117.577 344.44C117.367 344.581 117.164 344.726 116.963 344.88C117.021 344.919 117.079 344.959 117.138 345C118.03 345.629 118.829 346.314 119.507 347.17C119.546 347.218 119.585 347.267 119.625 347.316C119.77 347.507 119.874 347.649 119.886 347.893C119.038 349.34 116.179 350.14 114.673 350.56C114.116 350.7 113.56 350.81 112.99 350.885C112.916 350.895 112.841 350.905 112.765 350.915C109.352 351.294 105.765 350.397 103.013 348.324C103.133 347.876 103.343 347.554 103.631 347.198C103.675 347.144 103.718 347.09 103.762 347.035C104.452 346.188 105.217 345.51 106.103 344.88C106.032 344.823 105.961 344.767 105.888 344.709C105.662 344.526 105.662 344.526 105.574 344.438C105.419 344.412 105.264 344.386 105.109 344.363C101.854 343.869 99.0314 341.826 96.5679 339.757C96.515 339.713 96.4621 339.669 96.4076 339.624C93.933 337.553 93.933 337.553 92.9976 336.363C92.7006 335.993 92.3903 335.656 92.0502 335.327C91.8977 335.174 91.7605 335.017 91.6236 334.85C91.3895 334.572 91.1328 334.339 90.8555 334.104C90.6212 333.901 90.3977 333.689 90.1723 333.476C87.5148 331.013 83.3398 328.062 79.7425 327.348C79.5256 327.304 79.3591 327.236 79.1607 327.14C78.6451 326.903 78.1092 326.76 77.5639 326.608C77.4502 326.575 77.4502 326.575 77.3342 326.542C77.2657 326.523 77.1973 326.504 77.1268 326.484C76.9672 326.421 76.9672 326.421 76.879 326.245C76.9862 326.041 76.9862 326.041 77.1383 325.803C77.3426 325.515 77.3426 325.515 77.4087 325.185C77.2411 324.996 77.0708 324.814 76.8955 324.633C76.3643 324.072 75.8788 323.489 75.4124 322.874C75.2852 322.706 75.1566 322.54 75.0279 322.373C72.6725 319.303 70.4815 315.455 70.3454 311.496C70.3408 311.394 70.3363 311.293 70.3316 311.189C70.2585 308.147 71.3422 305.345 73.4212 303.134C73.5433 303.007 73.666 302.879 73.7888 302.752C73.8628 302.673 73.9369 302.593 74.0133 302.511C74.6957 301.796 75.4614 301.21 76.2609 300.633C76.3155 300.593 76.3701 300.554 76.4264 300.513C77.7912 299.538 79.3075 298.802 80.793 298.033C81.559 297.634 82.3098 297.211 83.0597 296.782C83.4247 296.574 83.7915 296.37 84.1599 296.167C85.5178 295.422 86.8445 294.638 88.1639 293.828C88.4975 293.624 88.8331 293.423 89.1692 293.223C90.0307 292.711 90.8751 292.176 91.7119 291.624C91.8029 291.565 91.894 291.505 91.9878 291.444C93.0591 290.738 94.1057 289.994 95.127 289.217C95.2801 289.102 95.4374 288.993 95.5967 288.886Z" fill="#00ADEE"/>
<path d="M111.577 246.847C111.636 246.847 111.694 246.847 111.754 246.847C111.99 247.966 112.189 249.079 112.322 250.215C112.331 250.289 112.34 250.363 112.349 250.439C112.738 253.691 113.02 256.97 113.158 260.243C113.164 260.391 113.171 260.538 113.178 260.686C113.262 262.513 113.273 264.338 113.272 266.167C113.271 266.242 113.271 266.317 113.271 266.394C113.27 270.733 113.27 270.733 113.095 272.879C113.077 273.092 113.061 273.306 113.044 273.52C112.584 279.319 111.828 286.344 107.869 290.918C107.811 290.987 107.753 291.056 107.693 291.127C107.317 291.563 106.923 291.99 106.457 292.331C106.398 292.331 106.34 292.331 106.28 292.331C106.28 292.389 106.28 292.447 106.28 292.508C106.046 292.752 105.801 292.915 105.485 293.037C105.13 293.004 104.834 292.835 104.514 292.684C104.294 292.595 104.072 292.509 103.85 292.423C103.286 292.203 102.734 291.977 102.195 291.701C102.008 291.607 101.818 291.528 101.623 291.453C101.295 291.325 100.97 291.193 100.646 291.056C100.277 290.901 99.9057 290.755 99.5312 290.614C99.0442 290.429 98.5753 290.216 98.104 289.994C97.7244 289.822 97.3388 289.668 96.9509 289.516C96.5231 289.347 96.1033 289.166 95.685 288.975C95.7304 288.643 95.8404 288.379 95.9918 288.082C98.0776 283.979 98.593 278.941 97.1804 274.552C96.6218 272.907 95.8341 271.382 94.8021 269.987C94.7591 269.928 94.7162 269.87 94.672 269.81C93.5843 268.357 92.2698 267.012 90.8006 265.944C90.6459 265.831 90.4935 265.715 90.3413 265.599C87.7199 263.613 84.7354 262.124 81.6565 260.993C81.5641 260.959 81.4718 260.925 81.3766 260.89C81.2944 260.86 81.2122 260.83 81.1275 260.799C80.9403 260.713 80.9403 260.713 80.8521 260.537C80.9358 260.526 81.0195 260.515 81.1057 260.504C84.7731 260.037 88.4487 259.441 91.9753 258.298C92.152 258.241 92.3293 258.186 92.5068 258.132C92.8608 258.023 93.2136 257.912 93.566 257.799C93.6343 257.777 93.7026 257.755 93.773 257.732C99.1553 255.994 104.456 253.491 108.712 249.7C108.825 249.599 108.939 249.5 109.054 249.402C109.593 248.93 110.099 248.424 110.606 247.918C110.681 247.844 110.756 247.769 110.834 247.692C110.904 247.621 110.975 247.55 111.048 247.477C111.111 247.414 111.175 247.35 111.241 247.284C111.415 247.106 111.415 247.106 111.577 246.847Z" fill="#EC1C24"/>
<path d="M258.556 178.088C260.782 180.216 262.116 183.225 262.22 186.307C262.276 189.67 261.189 192.737 258.847 195.182C258.742 195.297 258.742 195.297 258.634 195.415C256.538 197.631 253.552 198.777 250.541 198.916C247.799 198.991 245.049 198.186 242.867 196.506C242.783 196.443 242.7 196.379 242.615 196.314C240.083 194.309 238.481 191.442 238.096 188.235C237.742 184.862 238.701 181.653 240.831 179.022C242.871 176.562 245.791 175.054 248.964 174.747C252.562 174.456 255.893 175.674 258.556 178.088Z" fill="#00ADEF"/>
<path d="M87.5566 32.6389C87.631 32.6392 87.7055 32.6395 87.7823 32.6398C89.5556 32.65 91.2282 32.8854 92.9479 33.3289C93.0401 33.3525 93.1323 33.3761 93.2273 33.4005C94.1261 33.6497 94.9063 34.0417 95.5745 34.6978C95.6229 34.7441 95.6713 34.7903 95.7211 34.838C97.2481 36.3135 98.2466 38.2129 98.3336 40.3612C98.3382 40.4286 98.3427 40.496 98.3474 40.5654C98.3689 41.1392 98.2958 41.6984 98.2177 42.2655C98.2074 42.3427 98.197 42.4199 98.1863 42.4995C98.0166 43.6572 98.0166 43.6572 97.8039 44.0705C97.6352 44.1466 97.6352 44.1466 97.4507 44.1588C97.241 44.0655 97.0488 43.9669 96.8492 43.8552C94.3817 42.556 91.4768 42.0386 88.7099 41.9509C88.6185 41.948 88.6185 41.948 88.5253 41.945C85.0658 41.8514 81.6879 42.4998 78.3798 43.4523C77.5918 41.3878 77.5072 38.8082 78.4086 36.7722C78.9723 35.5934 79.8514 34.9187 80.9402 34.2673C80.9985 34.2318 81.0568 34.1964 81.1169 34.1598C83.0655 32.9927 85.3128 32.6213 87.5566 32.6389Z" fill="#ED3048"/>
</svg>
